<svg xmlns="http://www.w3.org/2000/svg" viewBox="0 0 254.59 254.61"><defs><style>.cls-1{fill:#772b90;}.cls-2{fill:#5f52a3;}.cls-3{fill:#1fb35e;}.cls-4{fill:#231f20;}.cls-5{fill:#73ccd0;}</style></defs><title>Asset 1</title><g id="Layer_2" data-name="Layer 2"><g id="Layer_1-2" data-name="Layer 1"><path class="cls-1" d="M254.59,127.3A62.9,62.9,0,0,1,192,190.13H177.17a13.78,13.78,0,0,1-14-13,14.12,14.12,0,0,1,6.41-11.81,4.23,4.23,0,0,1,.4-.24c.17-.11.34-.2.51-.29a14.23,14.23,0,0,1,3.17-1.21l.46-.1.5-.09a14.31,14.31,0,0,1,2.55-.23l.72,0H192a35.83,35.83,0,0,0,0-71.66h-14.1l-.72,0a13.52,13.52,0,1,1,0-27H192A62.9,62.9,0,0,1,254.59,127.3Z"/><path class="cls-2" d="M169.58,165.27a14.12,14.12,0,0,0-6.41,11.81c0-.15,0-.31,0-.46A13.38,13.38,0,0,1,169.58,165.27Z"/><path class="cls-3" d="M91.43,176.52a13.77,13.77,0,0,1-14,13.51H62.6a62.83,62.83,0,0,1,0-125.66H77.42a13.52,13.52,0,1,1,0,27l-.55,0H62.6a35.83,35.83,0,0,0,0,71.66H76.7l.72,0A13.77,13.77,0,0,1,91.43,176.52Z"/><path class="cls-4" d="M173.66,163.53a14.23,14.23,0,0,0-3.17,1.21A12.91,12.91,0,0,1,173.66,163.53Z"/><path class="cls-4" d="M190.19,190.13V192a62.83,62.83,0,0,1-125.66,0V177.19a13.52,13.52,0,1,1,27,0c0,.24,0,.48,0,.72V192a35.83,35.83,0,0,0,71.66,0v-14.1c0-.24,0-.48,0-.72v-.11a13.78,13.78,0,0,0,14,13Z"/><path class="cls-5" d="M190.2,62.6V77.42a13.52,13.52,0,1,1-27,0c0-.24,0-.48,0-.72V62.6a35.83,35.83,0,0,0-71.66,0V76.7c0,.24,0,.48,0,.72a13.77,13.77,0,0,1-13.51,14,11.51,11.51,0,0,1-1.18-.06l.55,0a13.52,13.52,0,1,0,0-27H64.54V62.6a62.83,62.83,0,0,1,125.66,0Z"/></g></g></svg>